<svg xmlns="http://www.w3.org/2000/svg" viewBox="0 0 309.14 62.24"><defs><style>.cls-1{fill:#fcfcfc;}</style></defs><title>Asset 1</title><g id="Layer_2" data-name="Layer 2"><g id="Layer_1-2" data-name="Layer 1"><path class="cls-1" d="M.08,62.24,0,62.08C1.36,61,2.32,59,2.32,41.6v-21C2.32,3.28,1.36,1.28,0,.16L.08,0A10.94,10.94,0,0,0,4.8,1.12c1.6,0,3.36-1,4.8-1,4.08,0,6.48,1.44,6.48,5.92,0,1.92-.48,5.76-.48,9.28,0,3.36,2.08,8.48,2.08,10.24,0,3.84-2.72,4.48-6.16,4.48-1.12,0-2.16.08-2.16,1.2s1.36,1.2,3,1.2c1.28,0,5.28-.24,5.28,5.28a33.51,33.51,0,0,1-1.84,9.84c2.08,1.68,3.2,4.24,3.2,8.08,0,4.8-1.2,6.48-4.32,6.48-3,0-5.52-1.84-5.52-7.2,0-7.84,3.92-16.24,3.92-19.12,0-1.36-.48-2-1.52-2.08-2.4-.16-3.2-.88-3.2-2.4,0-1.84,1.12-2.24,3-2.48a1.74,1.74,0,0,0,1.76-2c0-1.68-2.32-6.8-2.32-11.36s.88-8.88.88-11.68c0-1.92-.4-2.64-2-2.64-1,0-2.16.88-2.16,2.72V41.6C7.52,59,8.48,61,9.84,62.08l-.08.16A10.94,10.94,0,0,0,5,61.12H4.8A10.94,10.94,0,0,0,.08,62.24Zm15.76-1.36c1.28,0,2.08-1.6,2.08-5.12s-.56-5.68-2.32-7.36A31.12,31.12,0,0,0,13.92,57C13.92,59.28,14.64,60.88,15.84,60.88Z"/><path class="cls-1" d="M35.44,1A2.64,2.64,0,0,0,37.36.16l.16.08C36.4,3,35.44,7,35.44,13c0,5.84,0,9.44.24,13.2h-.56a163.8,163.8,0,0,0-3.28-21c-.64-2.72-1.28-3.84-2.16-3.84-2.4,0-2.32,2.4-2.32,28.32,3.12-1.12,2.72-3.12,4.08-16.56H32a322.85,322.85,0,0,0,0,35.2h-.56c-1.36-14.4-1-16.72-4.08-17.84,0,26.24-.32,30.64,2,30.64.88,0,1.52-1.12,2.16-3.84A187,187,0,0,0,35.6,33h.56c-.32,4.72-.56,9.2-.56,16.4,0,6,.56,10.16,1.6,12.72l-.16.08a2.64,2.64,0,0,0-1.92-.88c-1.6,0-3.36.88-5.6.88-4.88,0-8.32-4-8.32-31.76C21.2,3.84,24.8.16,29.2.16,31.68.16,33.68,1,35.44,1Z"/><path class="cls-1" d="M44.8,62.08c-1.36,0-1.92-1-3-1a7.1,7.1,0,0,0-3.44,1.12l-.08-.16c1.28-1,2.32-3,3.28-18.48C41.92,30,42.8,6.56,43,4.48c.32-3.6.88-4.32,3-4.32,2.4,0,3.44,1.68,3.6,4,.08,1.2,1.52,26,2.4,41.6.88,13.52,1.84,15.28,3.12,16.32l-.08.16a12.42,12.42,0,0,0-5.36-1.12C48,61.12,46.48,62.08,44.8,62.08ZM46.48,51.2V49H43c-.08,10.24.64,12.24,1.76,12.24C45.6,61.28,46.4,59,46.48,51.2Zm0-3.28V47H43a3.89,3.89,0,0,1-.08,1ZM43,45.84h3.44c-.24-15.36-.56-39.92-.64-43,0-.64-.24-1-.8-1s-.88.4-1,2.56C44,5.12,43.36,32.56,43,45.84Z"/><path class="cls-1" d="M55.76,62.24l-.08-.16C57,61,58,59,58,41.6v-21C58,3.28,57,1.28,55.68.16L55.76,0a10.94,10.94,0,0,0,4.72,1.12h.24A10.94,10.94,0,0,0,65.44,0l.08.16C64.16,1.28,63.2,3.28,63.2,20.64v35.6c0,4.16.4,4.8,1.2,4.8s1.6-1.36,2.16-4.48c1.28-6.8,2.88-17.76,4.08-30.16h.56c-.4,6.56-.56,12.72-.56,22.8,0,6,.56,10.16,1.6,12.72l-.16.08a2.64,2.64,0,0,0-1.92-.88c-1.6,0-3.36,1-5.6,1-1.12,0-2.32-1-4-1h-.08A10.94,10.94,0,0,0,55.76,62.24Z"/><path class="cls-1" d="M73.52,62.24l-.08-.16C74.8,61,75.76,59,75.76,41.6v-21c0-17.36-1-19.36-2.32-20.48L73.52,0a10.94,10.94,0,0,0,4.72,1.12h.24A10.94,10.94,0,0,0,83.2,0l.08.16C81.92,1.28,81,3.28,81,20.64v35.6c0,4.16.4,4.8,1.2,4.8s1.6-1.36,2.16-4.48C85.6,49.76,87.2,38.8,88.4,26.4H89c-.4,6.56-.56,12.72-.56,22.8,0,6,.56,10.16,1.6,12.72l-.16.08a2.64,2.64,0,0,0-1.92-.88c-1.6,0-3.36,1-5.6,1-1.12,0-2.32-1-4-1h-.08A10.94,10.94,0,0,0,73.52,62.24Z"/><path class="cls-1" d="M96.08,62.24,96,62.08c1.28-1,2.24-3,2.32-18.08-.08-3.68-1.12-11.12-3-23.84C92.88,3.12,92.48,1,91,.24L91,.08c2.72.48,4.08.64,6,1s2.56.4,2.64,1.76c0,.64.24,5,.8,17.84.24,5.12.64,16.88.72,17.84.16,1.76.24,2.24.8,2.24.4,0,.56-.48.72-2.24.08-.88.56-12.4.72-17.76.48-13,.72-17.68.8-18.24.08-1,.64-1,1.6-1.36s2-.64,3.36-1l.08.16c-1.52,1-2.48,3-3.92,20.72-1.28,15.44-1.76,19.68-1.84,22.88.08,15.28,1,17.2,2.32,18.24l-.08.16A10.94,10.94,0,0,0,101,61.12h-.24A10.94,10.94,0,0,0,96.08,62.24Z"/><path class="cls-1" d="M136.88,62.16h-.4c-.56-5.44-2.24-13.52-3.44-13.52-1,0,.88,6,.88,9,0,2.56-1.52,4.48-4.8,4.48-5.28,0-8.64-1.44-8.64-6,0-3.36,2.64-5.76,2.64-9.28,0-8-2.8-12.08-2.8-15.92s3-6.64,3-14c0-4.08-2.16-7.68-2.16-11.84,0-3.52,2.24-5,6.24-5,2.24,0,4,.88,5.6.88A2.64,2.64,0,0,0,135,.16l.16.08C134,3,133,7,133,13c0,5.84,0,9.44.24,13.2h-.56c-.8-8.64-2.4-16.24-3.28-21-.48-2.72-1.28-3.84-2.16-3.84s-1.12.56-1.12,2.16c0,2.88,2.32,7.28,2.32,12.08,0,7.68-6.8,10.16-6.8,15.52,0,5.2,6.56,5.44,6.56,15.68,0,4.64-2.32,8.88-2.32,11.68,0,2,1,2.64,3.2,2.64,2.64,0,3.68-1.28,3.68-3.36,0-2.32-2.72-7.6-2.72-14.24,0-10.56-1.12-11.52-2.32-12.48l.08-.16a10.94,10.94,0,0,0,4.72,1.12h.24a10.94,10.94,0,0,0,4.72-1.12l.08.16c-1.2,1-2.32,1.92-2.32,12.48C135.28,51,136.88,56.16,136.88,62.16Z"/><path class="cls-1" d="M140.16,56.16c0-3.36,2.63-5.76,2.63-9.28C142.79,38.8,140,34.8,140,31s3-7.36,3-15.6c0-3.52-2.16-6.64-2.16-10.24s2.88-5,7.91-5,8.09,1.44,8.09,5-2.17,6.72-2.17,10.24c0,8.24,3,11.68,3,15.6S155,38.8,155,46.88c0,3.52,2.64,5.92,2.64,9.28,0,4.56-3.36,6-8.81,6C143.52,62.16,140.16,60.72,140.16,56.16Zm12,2.24c0-2.8-2.32-7-2.32-11.68,0-10.24,6.56-10.48,6.56-15.68,0-5.36-6.8-7.84-6.8-15.52,0-4.64,2.32-8.88,2.32-11.68,0-1.92-1-2.56-3.13-2.56s-3,.64-3,2.56c0,2.8,2.33,7,2.33,11.68,0,7.68-6.8,10.16-6.8,15.52,0,5.2,6.56,5.44,6.56,15.68,0,4.64-2.32,8.88-2.32,11.68,0,2,1,2.64,3.19,2.64S152.16,60.4,152.16,58.4Z"/><path class="cls-1" d="M161.12,56.16c0-3.36,2.63-5.76,2.63-9.28C163.75,38.8,161,34.8,161,31s3-7.36,3-15.6c0-3.52-2.16-6.64-2.16-10.24s2.88-5,7.92-5,8.08,1.44,8.08,5-2.16,6.72-2.16,10.24c0,8.24,3,11.68,3,15.6s-2.79,7.84-2.79,15.92c0,3.52,2.63,5.92,2.63,9.28,0,4.56-3.35,6-8.8,6C164.47,62.16,161.12,60.72,161.12,56.16Zm12,2.24c0-2.8-2.33-7-2.33-11.68,0-10.24,6.57-10.48,6.57-15.68,0-5.36-6.81-7.84-6.81-15.52,0-4.64,2.33-8.88,2.33-11.68,0-1.92-1-2.56-3.13-2.56s-3,.64-3,2.56c0,2.8,2.33,7,2.33,11.68,0,7.68-6.81,10.16-6.81,15.52,0,5.2,6.57,5.44,6.57,15.68,0,4.64-2.33,8.88-2.33,11.68,0,2,1,2.64,3.2,2.64S173.12,60.4,173.12,58.4Z"/><path class="cls-1" d="M181,62.24l-.08-.16c1.36-1.12,2.32-3.12,2.32-20.48v-21c0-17.36-1-19.36-2.32-20.48L181,0a10.94,10.94,0,0,0,4.72,1.12c1.6,0,3.36-1,4.8-1,4.41,0,7,1.44,7,5s-2.16,6.72-2.16,10.24c0,8.24,3,11.68,3,15.6s-2.8,7.84-2.8,15.92c0,3.52,2.64,5.92,2.64,9.28,0,4.56-2.8,6-7.52,6-1.44,0-3.2-1-4.8-1h-.24A10.94,10.94,0,0,0,181,62.24Zm9.84-1.2c1.6,0,2-.72,2-2.64,0-2.8-2.32-7-2.32-11.68C190.47,36.48,197,36.24,197,31c0-5.36-6.8-7.84-6.8-15.52,0-4.64,2.32-8.88,2.32-11.68,0-1.84-.4-2.56-1.84-2.56s-2.32,1-2.32,18.4V42.24C188.39,58.24,189,61,190.79,61Z"/><path class="cls-1" d="M213.19,61.28a2.64,2.64,0,0,0-1.92.88l-.16-.08c1-2.4,1.6-6.32,1.6-11.92s-.32-9.12-.56-12.8h.56a127.64,127.64,0,0,0,4.08,19.84c.8,2.8,1.6,3.84,3.12,3.84s2.88-.88,2.88-3.28c0-3.36-5.6-6.48-5.6-12.64C217.11,37,220.79,33,220.79,29c0-1-.32-1.28-.8-1.28-1,0-1.76,1-2.48,3.76s-1.6,4.72-3.28,4.72c-1.2,0-2.16-.88-2.16-3.68,0-4.56,1.36-8.48,1.36-16.48,0-4.8-2.24-7.68-2.24-11,0-3.52,2.24-5,5-5,2.56,0,4.64.88,6.48.88a2.64,2.64,0,0,0,1.92-.88l.16.08a21,21,0,0,0-2.08,9.92c0,5,0,9.52.24,12.8h-.56a98.59,98.59,0,0,0-3.28-17.84c-.8-2.72-1.28-3.84-2.16-3.84-.64,0-1,.72-1,2,0,3.2,2.8,7.12,2.8,13.84,0,7-5.44,11.68-5.44,16,0,1.36.4,1.92,1,1.92.88,0,1.52-1.44,2.16-3.84.88-3.28,2.4-6.16,5.28-6.16,2.32,0,3.44.64,3.44,3.44,0,4.48-2.64,9.44-2.64,17.2,0,5.36,2.32,7.2,2.32,10.24,0,3.84-2.32,6.24-5.2,6.24C217,62.16,215,61.28,213.19,61.28Z"/><path class="cls-1" d="M227.27,62.24l-.08-.16c1.36-1.12,2.32-3.12,2.32-20.48v-21c0-17.36-1-19.36-2.32-20.48l.08-.16A10.94,10.94,0,0,0,232,1.12h.24c1.84,0,3.28-.88,5.52-.88s3.6.88,5.44.88h.24A10.94,10.94,0,0,0,248.15,0l.08.16c-1.36,1.12-2.32,3.12-2.32,20.48v21c0,17.36,1,19.36,2.32,20.48l-.08.16a10.94,10.94,0,0,0-4.72-1.12h-.24c-1.84,0-3.28.88-5.44.88s-3.68-.88-5.52-.88H232A10.94,10.94,0,0,0,227.27,62.24ZM237.75,1c-1.68,0-3,1.44-3,19.68v8.48h6V20.64C240.71,2.4,239.43,1,237.75,1Zm3,30.24v-1h-6v1Zm-3,30.08c1.68,0,3-1.44,3-19.68V32.32h-6V41.6C234.71,59.84,236.07,61.28,237.75,61.28Z"/><path class="cls-1" d="M249.43,62.24l-.08-.16c1.36-1.12,2.32-3.12,2.32-20.48v-21c0-17.36-1-19.36-2.32-20.48l.08-.16a10.94,10.94,0,0,0,4.72,1.12h.24A10.94,10.94,0,0,0,259.11,0l.08.16c-1.36,1.12-2.32,3.12-2.32,20.48v21c0,17.36,1,19.36,2.32,20.48l-.08.16a10.94,10.94,0,0,0-4.72-1.12h-.24A10.94,10.94,0,0,0,249.43,62.24Z"/><path class="cls-1" d="M265.75,62.24l-.08-.16C267,61,268,59,268,41.6V4c0-2.24-.4-2.8-1-2.8-.8,0-1.12,1.12-1.52,3.92-1.12,6.88-3,18.08-4.08,30.64h-.56c.24-6.56.4-12.72.56-22.8-.16-6-.72-10.32-1.6-12.88l.16-.08a2.36,2.36,0,0,0,1.92,1c1.2,0,2.72-.88,4.8-.88,1,0,2.24.88,4,.88s2.88-.88,3.92-.88c2,0,3.52.88,4.8.88a2.6,2.6,0,0,0,1.92-1l.16.08c-1,2.56-1.52,6.88-1.6,12.88.08,10.08.24,16.24.56,22.8h-.56c-1.2-12.56-3-23.76-4.08-30.64-.4-2.8-.8-3.92-1.52-3.92s-1,.56-1,2.8V41.6c0,17.36,1,19.36,2.32,20.48l-.08.16a10.94,10.94,0,0,0-4.72-1.12h-.24A10.94,10.94,0,0,0,265.75,62.24Z"/><path class="cls-1" d="M295.62,2.05h-3.39l-.16.16v9.5l-.16.16h-1.29l-.16-.16V2.21l-.16-.16h-3.38l-.16-.16V.76l.16-.16h8.7l.16.16V1.89Z"/><path class="cls-1" d="M309,11.87h-1.29l-.16-.16V4h-.16l-3.22,7.73-.16.16h-1.45l-.16-.16L299.16,4H299v7.73l-.16.16h-1.29l-.16-.16V.76l.16-.16h1.77l.16.16,3.7,9h.16l3.71-9,.16-.16H309l.16.16v11Z"/></g></g></svg>